 <svg xmlns="http://www.w3.org/2000/svg" version="1.0" viewBox="0 0 900 787">
      <path fill="#fdc435" fillOpacity=".6" d="M201.1 80.6c0 1.1.3 1.4.6.6.3-.7.2-1.6-.1-1.9-.3-.4-.6.2-.5 1.3m1 18c0 1.1.3 1.4.6.6.3-.7.2-1.6-.1-1.9-.3-.4-.6.2-.5 1.3m1.1 22.9c0 1.6.2 2.2.5 1.2.2-.9.2-2.3 0-3-.3-.6-.5.1-.5 1.8m-.1 30.1c0 1.1.3 1.4.6.6.3-.7.2-1.6-.1-1.9-.3-.4-.6.2-.5 1.3" />
      <path fill="#fdc435" d="M202.7 95.7c1.4 29 .9 69.2-1.1 82.6-5.9 40.4-16 61.1-59.7 121.4-21.6 29.7-29.4 41.7-36.8 56.3-10.5 20.7-14.3 34.1-14.3 51 0 24.8 12 48.7 32.2 64.2 20.7 15.9 45 24.2 104 35.3 50 9.4 68.7 14.1 88.5 22.2 20 8.1 35.1 18 51.3 33.7 12.6 12.1 21.6 23 45.7 55.1 11.2 14.8 24.6 32 29.9 38.2 26 30.2 50.4 45 82.1 49.8 13 2 38.8 2.3 52 .6 54-7 110.9-33.8 167.5-78.7 22.6-18 42.5-38.5 58.8-60.6l7.2-9.7V79H201.9z" />
      <path fill="#fdc435" fillOpacity=".5" d="M203.2 127c0 1.9.2 2.7.5 1.7.2-.9.2-2.5 0-3.5-.3-.9-.5-.1-.5 1.8m0 20.5c0 1.6.2 2.2.5 1.2.2-.9.2-2.3 0-3-.3-.6-.5.1-.5 1.8m-89.2 317c1.9 1.9 3.6 3.5 3.9 3.5s-1-1.6-2.9-3.5-3.6-3.5-3.9-3.5 1 1.6 2.9 3.5m252 97.8c0 .2 1.5 1.6 3.3 3.3l3.2 2.9-2.9-3.3c-2.8-3-3.6-3.7-3.6-2.9m415.9 30.4c-1.3 1.6-1.2 1.7.4.4s2.1-2.1 1.3-2.1c-.2 0-1 .8-1.7 1.7m-20 20c-1.3 1.6-1.2 1.7.4.4s2.1-2.1 1.3-2.1c-.2 0-1 .8-1.7 1.7M453 668.2c4.1 4.5 5 5.3 5 4.5 0-.2-2.1-2.3-4.7-4.7l-4.8-4.5z" />
      <path fill="#fdc435" fillOpacity=".3" d="M201.1 85.6c0 1.1.3 1.4.6.6.3-.7.2-1.6-.1-1.9-.3-.4-.6.2-.5 1.3m1 18c0 1.1.3 1.4.6.6.3-.7.2-1.6-.1-1.9-.3-.4-.6.2-.5 1.3m1.2 33.4c0 4.1.2 5.8.4 3.7.2-2 .2-5.4 0-7.5-.2-2-.4-.3-.4 3.8" />
      <path fill="#fdc435" fillOpacity=".1" d="m773 602.7-5.5 5.8 5.8-5.5c3.1-3 5.7-5.6 5.7-5.7 0-.8-1 .1-6 5.4m-15.1 14c-1.3 1.6-1.2 1.7.4.4s2.1-2.1 1.3-2.1c-.2 0-1 .8-1.7 1.7" />
      <path fill="#fdc435" fillOpacity=".1" d="M202.1 108.6c0 1.1.3 1.4.6.6.3-.7.2-1.6-.1-1.9-.3-.4-.6.2-.5 1.3M359 556.4c0 .2.8 1 1.8 1.7 1.5 1.3 1.6 1.2.3-.4s-2.1-2.1-2.1-1.3" />
      <path fill="#fdc435" fillOpacity=".8" d="M202.1 94.6c0 1.1.3 1.4.6.6.3-.7.2-1.6-.1-1.9-.3-.4-.6.2-.5 1.3m1.1 20.4c0 1.4.2 1.9.5 1.2.2-.6.2-1.8 0-2.5-.3-.6-.5-.1-.5 1.3M90.1 411.6c0 1.1.3 1.4.6.6.3-.7.2-1.6-.1-1.9-.3-.4-.6.2-.5 1.3M361.5 558c1 1.1 2 2 2.3 2s-.3-.9-1.3-2-2-2-2.3-2 .3.9 1.3 2m15 15c1 1.1 2 2 2.3 2s-.3-.9-1.3-2-2-2-2.3-2 .3.9 1.3 2M772 602.5c-4.1 4.1-7.2 7.5-6.9 7.5.2 0 3.8-3.4 7.9-7.5s7.2-7.5 6.9-7.5c-.2 0-3.8 3.4-7.9 7.5m-329 54.9c0 .2.8 1 1.8 1.7 1.5 1.3 1.6 1.2.3-.4s-2.1-2.1-2.1-1.3m100.8 50.3c.6.2 1.8.2 2.5 0 .6-.3.1-.5-1.3-.5s-1.9.2-1.2.5m14 0c.6.2 1.8.2 2.5 0 .6-.3.1-.5-1.3-.5s-1.9.2-1.2.5" />
      <path fill="#fdc435" fillOpacity=".7" d="M203.1 154.6c0 1.1.3 1.4.6.6.3-.7.2-1.6-.1-1.9-.3-.4-.6.2-.5 1.3" />
    </svg>